<svg width="187" height="187" viewBox="0 0 187 187" fill="none" xmlns="http://www.w3.org/2000/svg">
<g opacity="0.5">
<path opacity="0.5" d="M93.5 187C145.139 187 187 145.139 187 93.5C187 41.8614 145.139 0 93.5 0C41.8614 0 0 41.8614 0 93.5C0 145.139 41.8614 187 93.5 187Z" fill="url(#paint0_linear_190632_77)"/>
</g>
<path d="M93.6825 184.431C144.232 184.431 185.211 143.452 185.211 92.9026C185.211 42.353 144.232 1.37439 93.6825 1.37439C43.1329 1.37439 2.1543 42.353 2.1543 92.9026C2.1543 143.452 43.1329 184.431 93.6825 184.431Z" fill="#F5F5F5"/>
<path d="M93.7677 184.792C111.652 184.821 129.15 179.585 144.078 169.736C140.705 151.304 127.87 150.254 127.87 150.254H57.0884C57.0884 150.254 44.9762 151.248 41.1934 168.204C56.5845 179.03 74.9503 184.825 93.7677 184.792Z" fill="#5965E0"/>
<path d="M92.7953 135.152C117.194 135.152 136.973 115.373 136.973 90.9736C136.973 66.5747 117.194 46.7955 92.7953 46.7955C68.3964 46.7955 48.6172 66.5747 48.6172 90.9736C48.6172 115.373 68.3964 135.152 92.7953 135.152Z" fill="#333333"/>
<path opacity="0.1" d="M78.5371 127.771H106.844V150.417C106.844 154.17 105.354 157.769 102.701 160.423C100.048 163.077 96.4489 164.569 92.6961 164.571C88.9423 164.571 85.3423 163.079 82.688 160.425C80.0336 157.771 78.5425 154.171 78.5425 150.417V127.771H78.5371Z" fill="black"/>
<path d="M79.4351 126.721H105.958C106.196 126.721 106.424 126.815 106.593 126.984C106.761 127.152 106.856 127.38 106.856 127.618V149.367C106.856 151.226 106.49 153.068 105.778 154.785C105.067 156.503 104.024 158.064 102.709 159.379C101.394 160.693 99.8332 161.736 98.1152 162.447C96.3972 163.158 94.5559 163.524 92.6966 163.523C88.9428 163.523 85.3428 162.032 82.6885 159.378C80.0341 156.723 78.543 153.123 78.543 149.37V127.618C78.543 127.381 78.6368 127.154 78.8039 126.985C78.9711 126.817 79.198 126.722 79.4351 126.721Z" fill="#FDB797"/>
<path opacity="0.1" d="M78.5879 138.46C87.711 141.869 97.7534 141.896 106.895 138.538V135.055H78.5879V138.46Z" fill="black"/>
<path d="M92.7954 140.355C115.204 140.355 133.37 122.189 133.37 99.7798C133.37 77.371 115.204 59.2051 92.7954 59.2051C70.3866 59.2051 52.2207 77.371 52.2207 99.7798C52.2207 122.189 70.3866 140.355 92.7954 140.355Z" fill="#FDB797"/>
<path opacity="0.1" d="M63.8936 62.8727C63.8936 62.8727 80.9941 97.5829 129.231 77.4255L118 59.8159L98.0921 52.6708L63.8936 62.8727Z" fill="black"/>
<path d="M63.8936 62.3637C63.8936 62.3637 80.9941 97.0739 129.231 76.9111L118 59.3015L98.0921 52.1564L63.8936 62.3637Z" fill="#333333"/>
<path d="M63.7435 60.0114C64.8965 56.4421 66.8893 53.2017 69.5545 50.5623C77.5354 42.6724 90.6201 41.0087 97.3312 32.0123C98.9386 34.5092 97.6956 38.3484 94.92 39.42C101.35 39.3771 108.8 38.8145 112.436 33.526C113.334 35.6176 113.621 37.9213 113.262 40.1693C112.903 42.4172 111.913 44.5171 110.408 46.2249C116.106 46.4928 122.196 50.3506 122.555 56.0437C122.801 59.8373 120.412 63.4272 117.306 65.6027C114.201 67.7781 110.419 68.7774 106.708 69.5945C95.8738 71.9869 56.6734 81.9986 63.7435 60.0114Z" fill="#333333"/>
<path d="M52.2045 106.82C54.2893 106.82 55.9793 103.651 55.9793 99.7423C55.9793 95.8332 54.2893 92.6642 52.2045 92.6642C50.1197 92.6642 48.4297 95.8332 48.4297 99.7423C48.4297 103.651 50.1197 106.82 52.2045 106.82Z" fill="#FDB797"/>
<path d="M133.365 106.82C135.449 106.82 137.14 103.651 137.14 99.7423C137.14 95.8332 135.449 92.6642 133.365 92.6642C131.28 92.6642 129.59 95.8332 129.59 99.7423C129.59 103.651 131.28 106.82 133.365 106.82Z" fill="#FDB797"/>
<defs>
<linearGradient id="paint0_linear_190632_77" x1="93.5" y1="187" x2="93.5" y2="0" gradientUnits="userSpaceOnUse">
<stop stop-color="#808080" stop-opacity="0.25"/>
<stop offset="0.54" stop-color="#808080" stop-opacity="0.12"/>
<stop offset="1" stop-color="#808080" stop-opacity="0.1"/>
</linearGradient>
</defs>
</svg>
